<svg width="85" height="60" viewBox="0 0 85 60" fill="none" xmlns="http://www.w3.org/2000/svg">
<g clip-path="url(#clip0_118_1512)">
<path fill-rule="evenodd" clip-rule="evenodd" d="M15.2407 25.7799L72.3029 33.0454C79.6856 33.9854 84.9568 40.7949 84.0168 48.1776C83.0768 55.5603 76.2673 60.8316 68.8846 59.8915L11.8224 52.6261C4.43975 51.6861 -0.831453 44.8766 0.108539 37.4938C1.04853 30.1111 7.85798 24.8399 15.2407 25.7799Z" fill="#4EAE32"/>
<path d="M20.1154 46.3186C19.5995 46.2529 19.0939 46.1334 18.5986 45.96C18.1034 45.7865 17.6476 45.5457 17.2317 45.2375C16.8155 44.9293 16.4858 44.5389 16.2425 44.0665C15.9991 43.594 15.8714 43.0259 15.8594 42.3622L18.3642 42.681C18.4348 42.9936 18.5771 43.2565 18.7915 43.4701C19.0057 43.6837 19.2667 43.8548 19.5746 43.9837C19.8824 44.1126 20.1924 44.1969 20.5046 44.2366C20.6948 44.2608 20.9035 44.2736 21.131 44.275C21.3584 44.2764 21.5757 44.2489 21.783 44.1925C21.9902 44.1361 22.1648 44.0376 22.3069 43.897C22.4489 43.7565 22.5365 43.5572 22.5693 43.2992C22.6004 43.0549 22.5572 42.8527 22.4396 42.693C22.3219 42.5331 22.1533 42.3944 21.9338 42.2767C21.7142 42.159 21.445 42.0524 21.126 41.9565C20.5578 41.76 19.9501 41.5481 19.303 41.3209C18.656 41.0937 18.108 40.7927 17.6589 40.4184C17.4708 40.2702 17.3125 40.1051 17.184 39.9233C17.0553 39.7413 16.9527 39.5453 16.876 39.3356C16.7991 39.1258 16.7518 38.9024 16.7335 38.6656C16.7154 38.4287 16.7237 38.1745 16.7582 37.9031C16.8309 37.3328 17.0115 36.8625 17.3 36.4923C17.5886 36.122 17.9491 35.8369 18.3816 35.6367C18.8141 35.4365 19.2961 35.3082 19.8275 35.2517C20.3589 35.1952 20.8961 35.2015 21.4393 35.2706C22.1725 35.364 22.823 35.5641 23.3909 35.8709C23.9589 36.1778 24.413 36.5943 24.7529 37.1204C25.0929 37.6467 25.257 38.2815 25.2451 39.0251L22.8827 38.7243C22.8582 38.3761 22.6857 38.0783 22.3654 37.8305C22.0451 37.5828 21.6202 37.4253 21.0907 37.3578C20.9007 37.3336 20.7017 37.3255 20.4937 37.3335C20.2857 37.3416 20.0854 37.3712 19.8926 37.4226C19.6997 37.4739 19.5362 37.5669 19.4018 37.7016C19.2673 37.8362 19.1863 38.0121 19.1586 38.2294C19.1327 38.433 19.1611 38.616 19.244 38.7783C19.3268 38.9405 19.4669 39.086 19.6644 39.2147C19.8619 39.3432 20.0989 39.4597 20.3753 39.5639C20.8248 39.7177 21.2947 39.874 21.7849 40.033C22.2752 40.1921 22.6974 40.3425 23.0519 40.4841C23.4708 40.6616 23.8424 40.8848 24.167 41.1538C24.4914 41.4228 24.7292 41.7497 24.8802 42.1345C25.0313 42.5193 25.0713 42.9901 25.0005 43.5467C24.9174 44.1983 24.7159 44.7246 24.3959 45.1253C24.0759 45.526 23.683 45.821 23.2175 46.01C22.7519 46.1991 22.2475 46.3142 21.7042 46.3555C21.1609 46.3965 20.6313 46.3843 20.1154 46.3186ZM30.6489 47.5149C29.7799 47.4043 29.0785 47.1977 28.5445 46.8952C28.0104 46.5926 27.637 46.1657 27.4245 45.6144C27.2117 45.0631 27.1608 44.3529 27.2715 43.4841L27.9067 38.4947L26.2572 38.2847L26.5372 36.0853L28.1868 36.2954L28.5679 33.3018L31.0524 33.618L30.6712 36.6117L33.1761 36.9306L32.896 39.13L30.3912 38.811L29.7974 43.4746C29.7282 44.0176 29.7706 44.4438 29.9244 44.7532C30.0781 45.0624 30.4876 45.2595 31.1528 45.3441L32.0082 45.453L31.7282 47.6524L30.6489 47.5149ZM37.9283 48.5866C36.3808 48.3896 35.2471 47.8383 34.5278 46.9327C33.8084 46.0272 33.5533 44.753 33.7625 43.1102L34.5274 37.1026L37.0118 37.419L36.2677 43.2636C36.195 43.8338 36.21 44.3393 36.3125 44.7801C36.4151 45.2208 36.6252 45.5752 36.9429 45.8434C37.2605 46.1114 37.6842 46.2792 38.2136 46.3465C38.7838 46.4192 39.2504 46.3579 39.6133 46.1627C39.9761 45.9673 40.2523 45.668 40.4415 45.2644C40.6309 44.8608 40.7602 44.3875 40.8293 43.8445L41.5735 37.9999L44.058 38.3162L43.293 44.3237C43.0787 46.0072 42.5043 47.1861 41.5699 47.8605C40.6356 48.5347 39.4218 48.7768 37.9283 48.5866ZM49.1565 50.0162C48.0705 49.878 47.206 49.5162 46.5631 48.9308C45.9201 48.3453 45.4783 47.6164 45.2375 46.7443C44.9968 45.8721 44.9413 44.9268 45.0709 43.9086C45.2058 42.8496 45.5096 41.926 45.9825 41.1377C46.4554 40.3494 47.0891 39.761 47.8835 39.3723C48.6781 38.9837 49.6251 38.8594 50.7248 38.9995C51.1321 39.0513 51.5236 39.146 51.8993 39.2835C52.275 39.421 52.6243 39.6036 52.9471 39.8308C53.27 40.0581 53.5278 40.3359 53.7207 40.6639L54.3274 35.8987L56.8118 36.215L54.9786 50.6128L52.5756 50.3068L52.7059 48.9575C52.4048 49.2641 52.0673 49.504 51.6934 49.6771C51.3196 49.8503 50.9153 49.9643 50.4806 50.0195C50.0459 50.0744 49.6045 50.0734 49.1565 50.0162ZM49.9102 47.8359C50.5618 47.9188 51.1175 47.8344 51.5772 47.5825C52.0371 47.3306 52.4045 46.9635 52.6798 46.4812C52.9551 45.9989 53.129 45.4726 53.2016 44.9025C53.2776 44.3051 53.2416 43.7486 53.0933 43.233C52.9451 42.7175 52.6797 42.2836 52.2968 41.9313C51.914 41.5791 51.3967 41.3614 50.7451 41.2784C50.0527 41.1903 49.4863 41.2768 49.0461 41.5381C48.6058 41.7994 48.2616 42.1729 48.0136 42.6587C47.7655 43.1445 47.6041 43.6793 47.5299 44.2631C47.4745 44.6975 47.4732 45.1147 47.5257 45.5146C47.5782 45.9144 47.6941 46.2775 47.8733 46.6038C48.0526 46.9301 48.3078 47.2007 48.6392 47.4153C48.9706 47.63 49.3942 47.7701 49.9102 47.8359ZM61.2441 56.398C60.416 56.2926 59.6259 56.0781 58.8737 55.7547C58.1216 55.4312 57.4466 54.9625 56.8488 54.3484L57.999 52.4667C58.4139 52.892 58.893 53.2462 59.4365 53.5292C59.9798 53.8123 60.591 53.997 61.2698 54.0834C62.3424 54.22 63.1609 54.0483 63.7257 53.5683C64.2904 53.0883 64.6323 52.38 64.7516 51.4432L64.8527 50.6489C64.5686 50.9301 64.2371 51.1501 63.8581 51.3088C63.4792 51.4675 63.08 51.5683 62.6607 51.6115C62.2413 51.6548 61.8212 51.6496 61.4003 51.596C60.3549 51.4628 59.5506 51.1432 58.9873 50.6369C58.424 50.1305 58.0546 49.4834 57.879 48.6954C57.7033 47.9073 57.677 47.0312 57.7997 46.0672L58.5516 40.1615L61.0158 40.4753L60.3338 45.8312C60.2855 46.2113 60.2633 46.6016 60.2675 47.0024C60.2717 47.403 60.3344 47.7767 60.4558 48.1231C60.5773 48.4698 60.785 48.7617 61.079 48.9993C61.373 49.2368 61.7847 49.3892 62.3142 49.4566C63.0065 49.5448 63.5644 49.4433 63.9878 49.1524C64.4112 48.8613 64.7287 48.4533 64.9404 47.9286C65.1521 47.4036 65.2968 46.8357 65.3746 46.2247L66.0255 41.1132L68.51 41.4295L67.2731 51.1435C67.1573 52.0531 66.9581 52.8589 66.6756 53.5611C66.3929 54.2631 66.0084 54.8454 65.5219 55.3077C65.0353 55.7702 64.4417 56.098 63.741 56.2917C63.0404 56.4853 62.208 56.5207 61.2441 56.398Z" fill="white"/>
<path fill-rule="evenodd" clip-rule="evenodd" d="M44.8223 0C54.6373 0 62.6682 8.03044 62.6682 17.8457V17.9788C62.6682 27.7941 54.6376 35.8245 44.8226 35.8245C35.0074 35.8245 26.9766 27.7941 26.9766 17.9788V17.8457C26.9766 8.03044 35.0071 0 44.8223 0Z" fill="#264796"/>
<path d="M44.8518 28.0753C42.2519 28.0753 40.262 27.4026 38.8822 26.057C37.5024 24.7113 36.8125 22.6587 36.8125 19.8992V11.7488C36.8125 10.6794 37.6847 9.80713 38.7541 9.80713H39.0444C40.1138 9.80713 40.9861 10.6794 40.9861 11.7488V19.6254C40.9861 20.5834 41.1173 21.4159 41.3795 22.1228C41.6417 22.8298 42.0637 23.3715 42.6453 23.7478C43.2269 24.1241 43.9623 24.3122 44.8518 24.3122C45.8098 24.3122 46.5681 24.1128 47.1268 23.7136C47.6856 23.3145 48.079 22.7614 48.307 22.0544C48.5351 21.3474 48.6492 20.5377 48.6492 19.6254V11.7488C48.6492 10.6794 49.5214 9.80713 50.5908 9.80713H50.8811C51.9505 9.80713 52.8227 10.6794 52.8227 11.7488V19.8992C52.8227 22.7271 52.1215 24.7969 50.7189 26.1082C49.3162 27.4196 47.3605 28.0753 44.8518 28.0753Z" fill="white"/>
</g>
<defs>
<clipPath id="clip0_118_1512">
<rect width="85" height="60" fill="white"/>
</clipPath>
</defs>
</svg>
