<svg width="130" height="44" viewBox="0 0 130 44" fill="none" xmlns="http://www.w3.org/2000/svg">
<path d="M125.469 43.0798H124.161L124.163 34.5641L121.736 40.977C121.208 42.2468 119.482 42.0519 119.115 40.977L116.663 34.9701L116.67 37.2677V40.6853V40.7563V40.8273V40.8993V40.9194V42.0519C116.662 42.7266 116.309 43.051 115.644 43.0798H114.539V41.3004V33.5996L114.54 33.5747L114.541 33.5516L114.543 33.5267L114.545 33.5027L114.549 33.4787L114.552 33.4557L114.557 33.4307L114.562 33.4077L114.568 33.3837L114.574 33.3597H114.576L114.582 33.3367L114.59 33.3136L114.598 33.2906L114.608 33.2666L114.618 33.2445L114.627 33.2215L114.639 33.1985L114.65 33.1764L114.662 33.1543L114.674 33.1322L114.686 33.1111H114.687L114.7 33.0891L114.714 33.0679L114.729 33.0478L114.744 33.0267L114.76 33.0065L114.775 32.9864L114.791 32.9672L114.808 32.948L114.825 32.9288L114.843 32.9096L114.86 32.8913L114.878 32.8741L114.898 32.8558L114.916 32.8386L114.936 32.8222L114.955 32.8059L114.975 32.7906L114.995 32.7752L115.016 32.7599L115.037 32.7455L115.058 32.7311L115.079 32.7176L115.101 32.7052L115.122 32.6927L115.145 32.6802L115.167 32.6687L115.189 32.6581L115.213 32.6485L115.235 32.638L115.258 32.6293H115.259L115.281 32.6207L115.305 32.613L115.329 32.6053L115.351 32.5986L115.375 32.5929L115.4 32.5871L115.422 32.5833H115.423L115.446 32.5785L115.471 32.5756L115.495 32.5727L115.519 32.5718L115.543 32.5698H115.567H115.82H118L120.503 39.2706L122.925 33.1399C123.115 32.7599 123.419 32.5679 123.842 32.5698H125.475H126.495V42.0519C126.493 42.7554 126.209 43.0779 125.469 43.0798Z" fill="white"/>
<path d="M107.607 43.2619C106.104 43.2619 104.88 42.7715 103.933 41.7936C102.987 40.8127 102.516 39.5363 102.516 37.9633C102.516 36.302 102.995 34.9584 103.956 33.9334C104.917 32.9075 106.189 32.3921 107.774 32.3921C109.272 32.3921 110.483 32.8854 111.408 33.8653C112.331 34.849 112.794 36.1446 112.794 37.7502C112.794 39.4019 112.314 40.735 111.355 41.7456C110.399 42.7562 109.148 43.2619 107.607 43.2619ZM107.709 34.4305C106.88 34.4305 106.221 34.7415 105.735 35.3663C105.247 35.9891 105.003 36.8126 105.003 37.8386C105.003 38.8789 105.247 39.7023 105.735 40.3098C106.221 40.9154 106.86 41.2177 107.649 41.2177C108.466 41.2177 109.11 40.9231 109.59 40.3348C110.067 39.7445 110.306 38.9288 110.306 37.8836C110.306 36.7924 110.074 35.944 109.612 35.3394C109.148 34.7338 108.514 34.4305 107.709 34.4305Z" fill="white"/>
<path d="M100.961 42.9222C100.267 43.1573 99.5285 43.2619 98.5305 43.2619C96.9223 43.2619 95.6557 42.7888 94.7351 41.8406C93.8106 40.8924 93.3516 39.6294 93.3516 38.0506C93.3516 36.3702 93.8682 35.0064 94.9044 33.9603C95.941 32.9151 97.2871 32.3921 98.9397 32.3921C99.5603 32.3921 99.9905 32.4314 100.441 32.5101C101.06 32.6176 101.515 32.8278 101.529 33.5783V34.1935C101.467 34.826 100.941 34.7655 100.653 34.6753C100.177 34.5275 99.6751 34.4305 99.1301 34.4305C98.1454 34.4305 97.3495 34.7415 96.7448 35.3615C96.1405 35.9815 95.8388 36.8222 95.8388 37.8836C95.8388 38.899 96.1233 39.709 96.6949 40.3127C97.2639 40.9154 98.0333 41.2177 98.9999 41.2177C99.6531 41.2177 100.079 41.0507 100.68 40.9164C101.034 40.8367 101.53 40.9989 101.529 41.3789V41.9327C101.51 42.5498 101.322 42.8003 100.961 42.9222Z" fill="white"/>
<path d="M87.0839 43.2619C85.5809 43.2619 84.3578 42.7715 83.4109 41.7936C82.4645 40.8127 81.9922 39.5363 81.9922 37.9633C81.9922 36.302 82.4723 34.9584 83.4333 33.9334C84.3951 32.9075 85.666 32.3921 87.2515 32.3921C88.7498 32.3921 89.9609 32.8854 90.8841 33.8653C91.8086 34.849 92.2706 36.1446 92.2706 37.7502C92.2706 39.4019 91.7914 40.735 90.8325 41.7456C89.8762 42.7562 88.6251 43.2619 87.0839 43.2619ZM87.1866 34.4305C86.358 34.4305 85.6987 34.7415 85.2113 35.3663C84.7244 35.9891 84.4794 36.8126 84.4794 37.8386C84.4794 38.8789 84.7244 39.7023 85.2113 40.3098C85.6987 40.9154 86.3378 41.2177 87.126 41.2177C87.9431 41.2177 88.5882 40.9231 89.067 40.3348C89.544 39.7445 89.7834 38.9288 89.7834 37.8836C89.7834 36.7924 89.5518 35.944 89.0889 35.3394C88.6251 34.7338 87.9903 34.4305 87.1866 34.4305Z" fill="white"/>
<path d="M80.9176 34.496H77.2171V37.0777H79.59C80.1045 37.0777 80.6176 37.593 80.6176 38.1075V38.9971H77.2171V43.0798H75.8796C75.366 43.0798 74.8516 42.5644 74.8516 42.05V32.5698H79.8896C80.4032 32.5698 80.9176 33.0852 80.9176 33.5996V34.496Z" fill="white"/>
<path d="M71.1841 43.0825C70.7964 43.0758 70.2609 43.1689 69.6669 42.4635L65.7449 36.4748C65.4929 36.089 65.3157 35.7991 65.218 35.6043H65.1902C65.2276 35.9748 65.2477 36.542 65.2477 37.303V42.2763C65.2477 42.642 64.9929 43.0796 64.6451 43.0796H64.0435H63.0156V42.0498V41.4298V33.5994C63.1191 32.8105 63.9037 32.5524 64.4229 32.5697C64.9938 32.5524 65.4805 32.6224 65.9595 33.18L69.7254 38.9662C69.9149 39.257 70.0894 39.5421 70.2523 39.8242H70.2819C70.2424 39.5814 70.2222 39.0987 70.2222 38.3808V33.5908C70.2222 33.085 70.7358 32.5697 71.2533 32.5697H72.4537L72.4545 33.5994V40.1208V42.0498C72.4257 42.8157 71.6633 43.0911 71.1841 43.0825Z" fill="white"/>
<path d="M59.6098 43.0798H58.2734C58.2734 39.9194 58.2734 36.759 58.2734 33.5996C58.2734 33.0842 58.7869 32.5698 59.3004 32.5698H60.6377V42.0529C60.6377 42.5644 60.1242 43.0798 59.6098 43.0798Z" fill="white"/>
<path d="M55.709 43.0798H49.304C48.3853 43.0798 47.9974 42.0174 48.6066 41.2717L53.6522 34.496H48.6632V33.6015C48.6632 33.0852 49.1766 32.5698 49.6968 32.5698H55.5309H56.7111C56.7503 33.3635 56.5904 34.0564 56.1822 34.6265L51.4528 41.1575H56.7264V42.0529C56.7264 42.5644 56.2129 43.0798 55.709 43.0798Z" fill="white"/>
<path d="M46.8932 38.5288C46.8932 41.6834 45.4246 43.2621 42.4913 43.2621C39.6414 43.2621 38.2178 41.7208 38.2188 38.6391L38.2197 33.5996C38.2197 33.0842 38.5138 32.5698 39.2476 32.5698H40.5878V38.666C40.5878 40.3676 41.2527 41.2179 42.5785 41.2179C43.8794 41.2179 44.5308 40.3973 44.5308 38.7543V33.5996C44.5308 33.0842 45.0549 32.5698 45.5568 32.5698H46.8932V38.5288Z" fill="white"/>
<path fill-rule="evenodd" clip-rule="evenodd" d="M35.9053 32.583H26.8602C26.1072 32.583 25.4922 33.2001 25.4922 33.9535V34.2587C25.7393 34.2961 26.0143 34.3691 26.3122 34.4756C27.2491 34.8086 28.4159 35.467 29.6689 36.3758C30.6872 35.6157 31.6251 35.0725 32.3848 34.8019C33.1272 34.5389 33.7039 34.5351 34.0258 34.846C34.3917 35.1963 34.3764 35.8989 34.0507 36.8183C33.7183 37.7578 33.0611 38.9268 32.1539 40.1821C32.9126 41.2023 33.4548 42.1409 33.725 42.9029C33.7384 42.9404 33.7508 42.9787 33.7633 43.0162H34.5383C35.2903 43.0162 35.9053 42.4 35.9053 41.6457V32.583ZM25.4922 38.3375V41.6457C25.4922 42.1582 25.7767 42.6074 26.1953 42.8425C26.5153 42.8521 26.9014 42.7734 27.3411 42.615C28.2358 42.2925 29.3499 41.6399 30.5685 40.7263C30.578 40.7186 30.5924 40.7205 30.6001 40.7301C30.6068 40.7388 30.6058 40.7522 30.5972 40.7599C30.2542 41.0872 29.9122 41.3981 29.575 41.6889C29.2311 41.9845 28.892 42.2609 28.5615 42.5143H28.5606L28.368 42.6611H28.3671C28.2013 42.7859 28.0375 42.9039 27.8756 43.0162H32.0983C32.4107 42.6553 32.3924 42.019 32.0983 41.1975C31.7765 40.3002 31.125 39.184 30.2121 37.9632C30.2054 37.9536 30.2073 37.9402 30.2169 37.9325C30.2255 37.9258 30.2389 37.9268 30.2456 37.9344H30.2466C30.5733 38.279 30.8836 38.6216 31.1739 38.9594C31.4604 39.2944 31.7295 39.6245 31.9767 39.947C32.4049 39.1091 32.6817 38.3663 32.7804 37.7665C32.8762 37.1868 32.8053 36.7415 32.5457 36.4757C32.1951 36.1177 31.5408 36.1225 30.6834 36.4315C29.7877 36.754 28.6736 37.4066 27.4551 38.3203C27.4455 38.3279 27.4321 38.326 27.4244 38.3164C27.4177 38.3068 27.4187 38.2943 27.4263 38.2866C27.7693 37.9594 28.1113 37.6485 28.4485 37.3586C28.7828 37.0707 29.1124 36.802 29.4352 36.5534C28.5989 36.1234 27.8574 35.847 27.2587 35.7482C26.6801 35.6522 26.2356 35.7232 25.9702 35.9833C25.6119 36.3346 25.6177 36.9901 25.9261 37.849C26.248 38.7463 26.8994 39.8625 27.8114 41.0823C27.8191 41.0929 27.8172 41.1063 27.8066 41.114C27.798 41.1207 27.7856 41.1198 27.7779 41.1111C27.4503 40.7676 27.1409 40.4249 26.8506 40.0871C26.5555 39.7435 26.2796 39.4028 26.0258 39.0717L25.8802 38.8779L25.8792 38.8769C25.7432 38.6946 25.6138 38.5141 25.4922 38.3375Z" fill="white"/>
<path d="M13.6113 43.3919V37.8079L13.7233 38.5919L9.19531 32.1919H11.6273L15.0833 37.1519L14.3313 37.1039L17.4513 32.1919H19.7873L15.4513 38.7679L15.6913 37.6799V43.3919H13.6113Z" fill="white"/>
<path d="M0 43.3919V32.1919H4.768C5.504 32.1919 6.12267 32.2986 6.624 32.5119C7.136 32.7252 7.52 33.0452 7.776 33.4719C8.04267 33.8879 8.176 34.3946 8.176 34.9919C8.176 35.6106 8.01067 36.1332 7.68 36.5599C7.34933 36.9866 6.88533 37.2799 6.288 37.4399L6.272 37.1199C6.77333 37.2266 7.21067 37.4186 7.584 37.6959C7.95733 37.9626 8.24533 38.2986 8.448 38.7039C8.66133 39.0986 8.768 39.5519 8.768 40.0639C8.768 40.6079 8.67733 41.0879 8.496 41.5039C8.32533 41.9199 8.06933 42.2666 7.728 42.5439C7.38667 42.8212 6.98133 43.0346 6.512 43.1839C6.04267 43.3226 5.51467 43.3919 4.928 43.3919H0ZM2.032 41.5199H4.832C5.22667 41.5199 5.55733 41.4612 5.824 41.3439C6.10133 41.2266 6.30933 41.0559 6.448 40.8319C6.59733 40.5972 6.672 40.3199 6.672 39.9999C6.672 39.7012 6.592 39.4452 6.432 39.2319C6.28267 39.0186 6.064 38.8586 5.776 38.7519C5.488 38.6346 5.14667 38.5759 4.752 38.5759H2.032V41.5199ZM2.032 36.7839H4.576C4.88533 36.7839 5.152 36.7252 5.376 36.6079C5.61067 36.4906 5.792 36.3306 5.92 36.1279C6.048 35.9252 6.112 35.6906 6.112 35.4239C6.112 34.9972 5.968 34.6666 5.68 34.4319C5.392 34.1866 4.97067 34.0639 4.416 34.0639H2.032V36.7839Z" fill="white"/>
<path d="M117.543 23.3922V12.2242L117.767 13.7922L108.711 0.992188H113.575L120.487 10.9122L118.983 10.8162L125.223 0.992188H129.895L121.223 14.1442L121.703 11.9682V23.3922H117.543Z" fill="white"/>
<path d="M88.5 23.3922V0.992188H97.492C99.1133 0.992188 100.575 1.25885 101.876 1.79219C103.199 2.32552 104.329 3.09352 105.268 4.09619C106.228 5.09885 106.953 6.28286 107.444 7.64819C107.956 9.01352 108.212 10.5282 108.212 12.1922C108.212 13.8562 107.956 15.3815 107.444 16.7682C106.953 18.1335 106.239 19.3175 105.3 20.3202C104.361 21.3015 103.231 22.0589 101.908 22.5922C100.585 23.1255 99.1133 23.3922 97.492 23.3922H88.5ZM92.66 20.1602L92.34 19.5522H97.332C98.3773 19.5522 99.3053 19.3815 100.116 19.0402C100.948 18.6989 101.652 18.2082 102.228 17.5682C102.804 16.9282 103.241 16.1602 103.54 15.2642C103.839 14.3469 103.988 13.3229 103.988 12.1922C103.988 11.0615 103.839 10.0482 103.54 9.15219C103.241 8.23485 102.793 7.45619 102.196 6.81619C101.62 6.17619 100.927 5.68552 100.116 5.34419C99.3053 5.00285 98.3773 4.83219 97.332 4.83219H92.244L92.66 4.28819V20.1602Z" fill="white"/>
<path d="M73.4894 23.584C71.7188 23.584 70.1401 23.2106 68.7534 22.464C67.3668 21.696 66.2681 20.6506 65.4574 19.328C64.6681 17.984 64.2734 16.4693 64.2734 14.784V0.959961H68.4654V14.496C68.4654 15.4986 68.6894 16.3946 69.1374 17.184C69.6068 17.952 70.2254 18.5706 70.9934 19.04C71.7614 19.5093 72.5934 19.744 73.4894 19.744C74.4708 19.744 75.3561 19.5093 76.1454 19.04C76.9348 18.5706 77.5534 17.952 78.0014 17.184C78.4708 16.3946 78.7054 15.4986 78.7054 14.496V0.959961H82.7374V14.784C82.7374 16.4693 82.3321 17.984 81.5214 19.328C80.7321 20.6506 79.6441 21.696 78.2574 22.464C76.8708 23.2106 75.2814 23.584 73.4894 23.584Z" fill="white"/>
<path d="M49.6969 23.3922V4.83219H43.2969V0.992188H60.4489V4.83219H53.8569V23.3922H49.6969Z" fill="white"/>
<path d="M32.2624 23.7119C30.9611 23.7119 29.7664 23.5519 28.6784 23.2319C27.5904 22.8906 26.6091 22.3892 25.7344 21.7279C24.8598 21.0666 24.0811 20.2666 23.3984 19.3279L26.1184 16.2559C27.1638 17.7066 28.1878 18.7092 29.1904 19.2639C30.1931 19.8186 31.3238 20.0959 32.5824 20.0959C33.3078 20.0959 33.9691 19.9892 34.5664 19.7759C35.1638 19.5412 35.6331 19.2319 35.9744 18.8479C36.3158 18.4426 36.4864 17.9839 36.4864 17.4719C36.4864 17.1092 36.4118 16.7786 36.2624 16.4799C36.1344 16.1599 35.9318 15.8826 35.6544 15.6479C35.3771 15.3919 35.0358 15.1572 34.6304 14.9439C34.2251 14.7306 33.7664 14.5492 33.2544 14.3999C32.7424 14.2506 32.1771 14.1119 31.5584 13.9839C30.3851 13.7492 29.3611 13.4399 28.4864 13.0559C27.6118 12.6506 26.8758 12.1599 26.2784 11.5839C25.6811 10.9866 25.2438 10.3252 24.9664 9.59991C24.6891 8.85324 24.5504 8.01058 24.5504 7.07191C24.5504 6.13324 24.7531 5.26924 25.1584 4.47991C25.5851 3.69058 26.1611 3.00791 26.8864 2.43191C27.6118 1.85591 28.4544 1.40791 29.4144 1.08791C30.3744 0.76791 31.4091 0.60791 32.5184 0.60791C33.7771 0.60791 34.8971 0.757243 35.8784 1.05591C36.8811 1.35458 37.7558 1.80258 38.5024 2.39991C39.2704 2.97591 39.8998 3.67991 40.3904 4.51191L37.6384 7.23191C37.2118 6.57058 36.7318 6.02658 36.1984 5.59991C35.6651 5.15191 35.0891 4.82124 34.4704 4.60791C33.8518 4.37324 33.2011 4.25591 32.5184 4.25591C31.7504 4.25591 31.0784 4.36258 30.5024 4.57591C29.9478 4.78924 29.5104 5.09858 29.1904 5.50391C28.8704 5.88791 28.7104 6.35724 28.7104 6.91191C28.7104 7.33858 28.8064 7.72258 28.9984 8.06391C29.1904 8.38391 29.4571 8.67191 29.7984 8.92791C30.1611 9.18391 30.6198 9.40791 31.1744 9.59991C31.7291 9.79191 32.3584 9.96258 33.0624 10.1119C34.2358 10.3466 35.2918 10.6666 36.2304 11.0719C37.1691 11.4559 37.9691 11.9252 38.6304 12.4799C39.2918 13.0132 39.7931 13.6319 40.1344 14.3359C40.4758 15.0186 40.6464 15.7866 40.6464 16.6399C40.6464 18.1119 40.2944 19.3812 39.5904 20.4479C38.9078 21.4932 37.9371 22.3039 36.6784 22.8799C35.4198 23.4346 33.9478 23.7119 32.2624 23.7119Z" fill="white"/>
<path d="M10.4582 23.584C8.68752 23.584 7.10885 23.2106 5.72219 22.464C4.33552 21.696 3.23685 20.6506 2.42619 19.328C1.63685 17.984 1.24219 16.4693 1.24219 14.784V0.959961H5.43419V14.496C5.43419 15.4986 5.65819 16.3946 6.10619 17.184C6.57552 17.952 7.19419 18.5706 7.96219 19.04C8.73019 19.5093 9.56219 19.744 10.4582 19.744C11.4395 19.744 12.3249 19.5093 13.1142 19.04C13.9035 18.5706 14.5222 17.952 14.9702 17.184C15.4395 16.3946 15.6742 15.4986 15.6742 14.496V0.959961H19.7062V14.784C19.7062 16.4693 19.3009 17.984 18.4902 19.328C17.7009 20.6506 16.6129 21.696 15.2262 22.464C13.8395 23.2106 12.2502 23.584 10.4582 23.584Z" fill="white"/>
</svg>
